# xmcd CD database file
#
# Track frame offsets:
#	150
#	22995
#	38607
#	60352
#	85042
#	106002
#	132367
#	157477
#
# Disc length: 2232 seconds
#
# Revision: 0
# Processed by: cddbd v1.5.1PL0 Copyright (c) Steve Scherf et al.
# Submitted via: CDex 1.51
#
DISCID=5808b608
DTITLE=Kassap and Corneloup - Deux
DYEAR=1997
DGENRE=Jazz
TTITLE0=Yu-Bin-Ha-Ga-Ki
TTITLE1=Trois
TTITLE2=Music-Hall
TTITLE3=Taraf
TTITLE4=Pingouins
TTITLE5=Baoule
TTITLE6=Didjerrymull
TTITLE7=Mademoiselle Pogany
EXTD=YEAR: 1997
EXTT0=
EXTT1=
EXTT2=
EXTT3=
EXTT4=
EXTT5=
EXTT6=
EXTT7=
PLAYORDER=
